<svg width="24" height="25" viewBox="0 0 24 25" fill="none" xmlns="http://www.w3.org/2000/svg">
<g clip-path="url(#clip0_140_2993)">
<path d="M12 2.33203C11.0234 2.33203 10.1719 3.28078 10.1719 4.53516C10.1719 5.78953 11.0234 6.73828 12 6.73828C12.9766 6.73828 13.8281 5.78953 13.8281 4.53516C13.8281 3.28078 12.9766 2.33203 12 2.33203ZM5.16834 3.36019L4.37194 3.75844C5.07117 4.79658 5.88192 5.96217 6.70444 6.99033C7.6282 8.14505 8.57709 9.10195 9.18867 9.40777L9.42188 9.52439V11.3749C10.6936 11.544 11.6023 11.6085 12.6035 11.5666C12.5726 11.5437 12.5418 11.5207 12.5121 11.4973C12.2817 11.3154 12.0818 11.1126 11.9262 10.8946C11.651 10.8671 11.4304 10.6896 11.2984 10.4892C11.1548 10.2712 11.0842 10.0091 11.0842 9.72689C11.0842 9.4447 11.1548 9.18258 11.2984 8.96452C11.442 8.74655 11.6905 8.55502 12 8.55502C12.3095 8.55502 12.558 8.7465 12.7016 8.96452C12.8452 9.18258 12.9158 9.4447 12.9158 9.72689C12.9158 10.0091 12.8452 10.2712 12.7016 10.4892C12.6988 10.4936 12.6955 10.4979 12.6926 10.5022C12.7826 10.6127 12.8958 10.7252 13.0349 10.835C13.3294 11.0676 13.725 11.2785 14.1951 11.4285C14.3193 11.4133 14.4466 11.397 14.5781 11.3797V9.52439L14.8113 9.40777C15.423 9.10191 16.3718 8.14495 17.2956 6.99028C18.1181 5.96213 18.9288 4.79653 19.6281 3.75839L18.8317 3.36014C16.6437 5.53931 14.4277 7.58203 12 7.58203C9.57225 7.58203 7.35623 5.53931 5.16834 3.36019ZM6.53213 11.7944L7.10175 14.6427C11.8388 15.0815 12.1612 15.0815 16.8983 14.6427L17.4676 11.7958C12.3076 12.6136 11.6917 12.6003 6.53217 11.7944L6.53213 11.7944ZM8.37169 15.607L8.99747 20.6132H15.0026L15.6283 15.607C12.4521 15.8897 11.548 15.8897 8.37169 15.607ZM6.42188 21.457V22.3945H17.5781V21.457H6.42188ZM0.75 23.1914V24.0352H23.25V23.1914H0.75Z" fill="#083549"/>
</g>
<defs>
<clipPath id="clip0_140_2993">
<rect width="24" height="24" fill="white" transform="translate(0 0.785156)"/>
</clipPath>
</defs>
</svg>
