<svg width="24" height="25" viewBox="0 0 24 25" fill="none" xmlns="http://www.w3.org/2000/svg">
<path d="M16 11.7852C17.66 11.7852 18.99 10.4452 18.99 8.78516C18.99 7.12516 17.66 5.78516 16 5.78516C14.34 5.78516 13 7.12516 13 8.78516C13 10.4452 14.34 11.7852 16 11.7852ZM8 11.7852C9.66 11.7852 10.99 10.4452 10.99 8.78516C10.99 7.12516 9.66 5.78516 8 5.78516C6.34 5.78516 5 7.12516 5 8.78516C5 10.4452 6.34 11.7852 8 11.7852ZM8 13.7852C5.67 13.7852 1 14.9552 1 17.2852V19.7852H15V17.2852C15 14.9552 10.33 13.7852 8 13.7852ZM16 13.7852C15.71 13.7852 15.38 13.8052 15.03 13.8352C16.19 14.6752 17 15.8052 17 17.2852V19.7852H23V17.2852C23 14.9552 18.33 13.7852 16 13.7852Z" fill="#083549"/>
</svg>
