<svg width="24" height="25" viewBox="0 0 24 25" fill="none" xmlns="http://www.w3.org/2000/svg">
<g clip-path="url(#clip0_140_3103)">
<path d="M16 3.78516C16.7652 3.78511 17.5015 4.07748 18.0583 4.60244C18.615 5.1274 18.9501 5.84526 18.995 6.60916L19 6.78516V16.7852H19.75C20.397 16.7852 20.93 17.2772 20.994 17.9072L21 18.0352V19.7852C21 20.5504 20.7077 21.2867 20.1827 21.8434C19.6578 22.4002 18.9399 22.7353 18.176 22.7802L18 22.7852H8C7.23479 22.7852 6.49849 22.4928 5.94174 21.9679C5.38499 21.4429 5.04989 20.725 5.005 19.9612L5 19.7852V9.78516H3.25C2.94054 9.7853 2.64203 9.67064 2.41223 9.46338C2.18244 9.25612 2.03769 8.97099 2.006 8.66316L2 8.53516V6.78516C1.99996 6.01995 2.29233 5.28364 2.81728 4.7269C3.34224 4.17015 4.06011 3.83505 4.824 3.79016L5 3.78516H16ZM16 5.78516H7V19.7852C7 20.0504 7.10536 20.3047 7.29289 20.4923C7.48043 20.6798 7.73478 20.7852 8 20.7852C8.26522 20.7852 8.51957 20.6798 8.70711 20.4923C8.89464 20.3047 9 20.0504 9 19.7852V18.0352C9 17.3452 9.56 16.7852 10.25 16.7852H17V6.78516C17 6.51994 16.8946 6.26559 16.7071 6.07805C16.5196 5.89051 16.2652 5.78516 16 5.78516ZM19 18.7852H11V19.7852C11 20.1352 10.94 20.4722 10.83 20.7852H18C18.2652 20.7852 18.5196 20.6798 18.7071 20.4923C18.8946 20.3047 19 20.0504 19 19.7852V18.7852ZM12 12.7852C12.2652 12.7852 12.5196 12.8905 12.7071 13.078C12.8946 13.2656 13 13.5199 13 13.7852C13 14.0504 12.8946 14.3047 12.7071 14.4923C12.5196 14.6798 12.2652 14.7852 12 14.7852H10C9.73478 14.7852 9.48043 14.6798 9.29289 14.4923C9.10536 14.3047 9 14.0504 9 13.7852C9 13.5199 9.10536 13.2656 9.29289 13.078C9.48043 12.8905 9.73478 12.7852 10 12.7852H12ZM14 8.78516C14.2652 8.78516 14.5196 8.89051 14.7071 9.07805C14.8946 9.26559 15 9.51994 15 9.78516C15 10.0504 14.8946 10.3047 14.7071 10.4923C14.5196 10.6798 14.2652 10.7852 14 10.7852H10C9.73478 10.7852 9.48043 10.6798 9.29289 10.4923C9.10536 10.3047 9 10.0504 9 9.78516C9 9.51994 9.10536 9.26559 9.29289 9.07805C9.48043 8.89051 9.73478 8.78516 10 8.78516H14ZM5 5.78516C4.75507 5.78519 4.51866 5.87511 4.33563 6.03787C4.15259 6.20063 4.03566 6.42491 4.007 6.66816L4 6.78516V7.78516H5V5.78516Z" fill="#083549"/>
</g>
<defs>
<clipPath id="clip0_140_3103">
<rect width="24" height="24" fill="white" transform="translate(0 0.785156)"/>
</clipPath>
</defs>
</svg>
